HIERARCHY
ROOT mixamorig:Hips
{
	OFFSET 0.000000 201.639420 0.000000
	CHANNELS 6 Xposition Yposition Zposition Xrotation Yrotation Zrotation
	JOINT mixamorig:Spine
	{
		OFFSET 0.006200 19.524994 -2.481800
		CHANNELS 3 Xrotation Yrotation Zrotation
		JOINT mixamorig:Spine1
		{
			OFFSET -0.000900 22.835007 -2.825400
			CHANNELS 3 Xrotation Yrotation Zrotation
			JOINT mixamorig:Spine2
			{
				OFFSET -0.020600 26.552490 -3.193300
				CHANNELS 3 Xrotation Yrotation Zrotation
				JOINT mixamorig:Neck
				{
					OFFSET -0.060000 30.701813 1.352200
					CHANNELS 3 Xrotation Yrotation Zrotation
					JOINT mixamorig:Head
					{
						OFFSET -0.087200 22.547607 3.670900
						CHANNELS 3 Xrotation Yrotation Zrotation
						JOINT mixamorig:HeadTop_End
						{
							OFFSET -0.830600 40.355194 7.893500
							CHANNELS 3 Xrotation Yrotation Zrotation
							End Site
							{
								OFFSET 0.000000 30.592346 0.000000
							}
						}
						JOINT mixamorig:RightEye
						{
							OFFSET -6.302100 18.118591 16.197100
							CHANNELS 3 Xrotation Yrotation Zrotation
							End Site
							{
								OFFSET 0.000000 30.592346 0.000000
							}
						}
						JOINT mixamorig:LeftEye
						{
							OFFSET 6.741500 18.382690 16.401899
							CHANNELS 3 Xrotation Yrotation Zrotation
							End Site
							{
								OFFSET 0.000000 30.592346 0.000000
							}
						}
					}
				}
				JOINT mixamorig:LeftShoulder
				{
					OFFSET 11.924900 18.230499 1.425400
					CHANNELS 3 Xrotation Yrotation Zrotation
					JOINT mixamorig:LeftArm
					{
						OFFSET 25.435989 -0.697632 -5.229300
						CHANNELS 3 Xrotation Yrotation Zrotation
						JOINT mixamorig:LeftForeArm
						{
							OFFSET 54.684776 0.000000 0.000000
							CHANNELS 3 Xrotation Yrotation Zrotation
							JOINT mixamorig:LeftHand
							{
								OFFSET 55.098175 0.000000 0.000000
								CHANNELS 3 Xrotation Yrotation Zrotation
								JOINT mixamorig:LeftHandMiddle1
								{
									OFFSET 23.369751 0.000000 0.000000
									CHANNELS 3 Xrotation Yrotation Zrotation
									JOINT mixamorig:LeftHandMiddle2
									{
										OFFSET 6.378677 0.000000 0.000000
										CHANNELS 3 Xrotation Yrotation Zrotation
										JOINT mixamorig:LeftHandMiddle3
										{
											OFFSET 6.148331 0.000000 0.000000
											CHANNELS 3 Xrotation Yrotation Zrotation
											JOINT mixamorig:LeftHandMiddle4
											{
												OFFSET 6.582504 0.000000 0.000000
												CHANNELS 3 Xrotation Yrotation Zrotation
												End Site
												{
													OFFSET -1.168900 6.395691 1.028606
												}
											}
										}
									}
								}
								JOINT mixamorig:LeftHandThumb1
								{
									OFFSET 7.235672 -3.848206 5.434273
									CHANNELS 3 Xrotation Yrotation Zrotation
									JOINT mixamorig:LeftHandThumb2
									{
										OFFSET 6.568451 -3.792297 3.792300
										CHANNELS 3 Xrotation Yrotation Zrotation
										JOINT mixamorig:LeftHandThumb3
										{
											OFFSET 6.063080 -3.500519 3.500518
											CHANNELS 3 Xrotation Yrotation Zrotation
											JOINT mixamorig:LeftHandThumb4
											{
												OFFSET 4.793182 -2.767334 2.767349
												CHANNELS 3 Xrotation Yrotation Zrotation
												End Site
												{
													OFFSET 0.101639 6.054260 1.275483
												}
											}
										}
									}
								}
								JOINT mixamorig:LeftHandIndex1
								{
									OFFSET 23.101074 -0.309540 4.992809
									CHANNELS 3 Xrotation Yrotation Zrotation
									JOINT mixamorig:LeftHandIndex2
									{
										OFFSET 6.226883 0.000000 0.000000
										CHANNELS 3 Xrotation Yrotation Zrotation
										JOINT mixamorig:LeftHandIndex3
										{
											OFFSET 6.094330 0.000000 0.000000
											CHANNELS 3 Xrotation Yrotation Zrotation
											JOINT mixamorig:LeftHandIndex4
											{
												OFFSET 5.482605 0.000000 0.000000
												CHANNELS 3 Xrotation Yrotation Zrotation
												End Site
												{
													OFFSET -1.427902 5.233032 0.797164
												}
											}
										}
									}
								}
								JOINT mixamorig:LeftHandRing1
								{
									OFFSET 22.299240 0.021149 -3.964172
									CHANNELS 3 Xrotation Yrotation Zrotation
									JOINT mixamorig:LeftHandRing2
									{
										OFFSET 6.321869 0.000000 0.000000
										CHANNELS 3 Xrotation Yrotation Zrotation
										JOINT mixamorig:LeftHandRing3
										{
											OFFSET 5.899796 0.000000 0.000000
											CHANNELS 3 Xrotation Yrotation Zrotation
											JOINT mixamorig:LeftHandRing4
											{
												OFFSET 6.517899 0.000000 0.000000
												CHANNELS 3 Xrotation Yrotation Zrotation
												End Site
												{
													OFFSET -1.637299 6.232208 0.980890
												}
											}
										}
									}
								}
								JOINT mixamorig:LeftHandPinky1
								{
									OFFSET 20.463791 -0.302338 -8.562233
									CHANNELS 3 Xrotation Yrotation Zrotation
									JOINT mixamorig:LeftHandPinky2
									{
										OFFSET 6.908646 0.000000 0.000000
										CHANNELS 3 Xrotation Yrotation Zrotation
										JOINT mixamorig:LeftHandPinky3
										{
											OFFSET 4.622849 0.000000 0.000000
											CHANNELS 3 Xrotation Yrotation Zrotation
											JOINT mixamorig:LeftHandPinky4
											{
												OFFSET 5.216080 0.000000 0.000000
												CHANNELS 3 Xrotation Yrotation Zrotation
												End Site
												{
													OFFSET -0.606308 5.116241 0.814926
												}
											}
										}
									}
								}
							}
						}
					}
				}
				JOINT mixamorig:RightShoulder
				{
					OFFSET -12.001300 18.284088 1.348900
					CHANNELS 3 Xrotation Yrotation Zrotation
					JOINT mixamorig:RightArm
					{
						OFFSET -25.308500 -0.751312 -5.164599
						CHANNELS 3 Xrotation Yrotation Zrotation
						JOINT mixamorig:RightForeArm
						{
							OFFSET -54.684429 0.000000 0.000000
							CHANNELS 3 Xrotation Yrotation Zrotation
							JOINT mixamorig:RightHand
							{
								OFFSET -55.150291 0.000000 0.000000
								CHANNELS 3 Xrotation Yrotation Zrotation
								JOINT mixamorig:RightHandMiddle1
								{
									OFFSET -23.317566 0.000000 0.000000
									CHANNELS 3 Xrotation Yrotation Zrotation
									JOINT mixamorig:RightHandMiddle2
									{
										OFFSET -6.378403 0.000000 0.000000
										CHANNELS 3 Xrotation Yrotation Zrotation
										JOINT mixamorig:RightHandMiddle3
										{
											OFFSET -6.148193 0.000000 0.000000
											CHANNELS 3 Xrotation Yrotation Zrotation
											JOINT mixamorig:RightHandMiddle4
											{
												OFFSET -6.583389 0.000000 0.000000
												CHANNELS 3 Xrotation Yrotation Zrotation
												End Site
												{
													OFFSET 1.171692 6.395905 1.029786
												}
											}
										}
									}
								}
								JOINT mixamorig:RightHandThumb1
								{
									OFFSET -7.190521 -3.860474 5.435846
									CHANNELS 3 Xrotation Yrotation Zrotation
									JOINT mixamorig:RightHandThumb2
									{
										OFFSET -6.567429 -3.791718 3.791708
										CHANNELS 3 Xrotation Yrotation Zrotation
										JOINT mixamorig:RightHandThumb3
										{
											OFFSET -6.062469 -3.500153 3.500166
											CHANNELS 3 Xrotation Yrotation Zrotation
											JOINT mixamorig:RightHandThumb4
											{
												OFFSET -4.792618 -2.767029 2.767022
												CHANNELS 3 Xrotation Yrotation Zrotation
												End Site
												{
													OFFSET -0.100327 6.053253 1.276754
												}
											}
										}
									}
								}
								JOINT mixamorig:RightHandIndex1
								{
									OFFSET -23.048981 -0.310791 4.992554
									CHANNELS 3 Xrotation Yrotation Zrotation
									JOINT mixamorig:RightHandIndex2
									{
										OFFSET -6.227539 0.000000 0.000000
										CHANNELS 3 Xrotation Yrotation Zrotation
										JOINT mixamorig:RightHandIndex3
										{
											OFFSET -6.095047 0.000000 0.000000
											CHANNELS 3 Xrotation Yrotation Zrotation
											JOINT mixamorig:RightHandIndex4
											{
												OFFSET -5.484772 0.000000 0.000000
												CHANNELS 3 Xrotation Yrotation Zrotation
												End Site
												{
													OFFSET 1.420593 5.237305 0.797056
												}
											}
										}
									}
								}
								JOINT mixamorig:RightHandRing1
								{
									OFFSET -22.246323 0.020569 -3.963762
									CHANNELS 3 Xrotation Yrotation Zrotation
									JOINT mixamorig:RightHandRing2
									{
										OFFSET -6.322128 0.000000 0.000000
										CHANNELS 3 Xrotation Yrotation Zrotation
										JOINT mixamorig:RightHandRing3
										{
											OFFSET -5.900024 0.000000 0.000000
											CHANNELS 3 Xrotation Yrotation Zrotation
											JOINT mixamorig:RightHandRing4
											{
												OFFSET -6.518356 0.000000 0.000000
												CHANNELS 3 Xrotation Yrotation Zrotation
												End Site
												{
													OFFSET 1.636398 6.232697 0.982186
												}
											}
										}
									}
								}
								JOINT mixamorig:RightHandPinky1
								{
									OFFSET -20.411011 -0.303314 -8.561701
									CHANNELS 3 Xrotation Yrotation Zrotation
									JOINT mixamorig:RightHandPinky2
									{
										OFFSET -6.907349 0.000000 0.000000
										CHANNELS 3 Xrotation Yrotation Zrotation
										JOINT mixamorig:RightHandPinky3
										{
											OFFSET -4.623840 0.000000 0.000000
											CHANNELS 3 Xrotation Yrotation Zrotation
											JOINT mixamorig:RightHandPinky4
											{
												OFFSET -5.218353 0.000000 0.000000
												CHANNELS 3 Xrotation Yrotation Zrotation
												End Site
												{
													OFFSET 0.602097 5.118835 0.816273
												}
											}
										}
									}
								}
							}
						}
					}
				}
			}
		}
	}
	JOINT mixamorig:LeftUpLeg
	{
		OFFSET 18.168400 -13.561905 -0.039000
		CHANNELS 3 Xrotation Yrotation Zrotation
		JOINT mixamorig:LeftLeg
		{
			OFFSET 0.577358 -80.825211 -3.695000
			CHANNELS 3 Xrotation Yrotation Zrotation
			JOINT mixamorig:LeftFoot
			{
				OFFSET -0.577356 -83.370262 -6.520700
				CHANNELS 3 Xrotation Yrotation Zrotation
				JOINT mixamorig:LeftToeBase
				{
					OFFSET 0.750401 -20.798306 25.135401
					CHANNELS 3 Xrotation Yrotation Zrotation
					JOINT mixamorig:LeftToe_End
					{
						OFFSET -0.000500 0.001200 19.917799
						CHANNELS 3 Xrotation Yrotation Zrotation
						End Site
						{
							OFFSET 0.000000 19.917805 0.000000
						}
					}
				}
			}
		}
	}
	JOINT mixamorig:RightUpLeg
	{
		OFFSET -18.162500 -13.585098 -0.041000
		CHANNELS 3 Xrotation Yrotation Zrotation
		JOINT mixamorig:RightLeg
		{
			OFFSET -0.595024 -80.945297 -3.631900
			CHANNELS 3 Xrotation Yrotation Zrotation
			JOINT mixamorig:RightFoot
			{
				OFFSET 0.595024 -83.218193 -6.561200
				CHANNELS 3 Xrotation Yrotation Zrotation
				JOINT mixamorig:RightToeBase
				{
					OFFSET -0.753601 -20.807106 25.115000
					CHANNELS 3 Xrotation Yrotation Zrotation
					JOINT mixamorig:RightToe_End
					{
						OFFSET 0.000299 0.001700 19.918200
						CHANNELS 3 Xrotation Yrotation Zrotation
						End Site
						{
							OFFSET 0.000000 19.918203 0.000000
						}
					}
				}
			}
		}
	}
}
MOTION
Frames: 4
Frame Time: 0.033333
-6.280918 182.216934 -3.449209 -29.021593 -62.939169 -31.444774 9.304482 -11.718584 -2.035439 3.652118 -1.592532 0.934048 3.674150 -1.562277 0.881413 10.048347 -1.293375 1.538001 -3.764422 -6.659248 1.960108 0.000001 0.000000 0.000000 0.000001 0.000000 0.000000 0.000001 0.000000 0.000000 1.044689 -8.659111 0.269091 -38.897596 -50.615687 -55.864274 0.000011 -54.893776 -0.000005 41.229983 16.493735 -37.725785 0.077063 1.029391 -8.562298 0.047328 0.807590 -6.707721 0.021029 0.538793 -4.469298 0.000002 0.000001 0.000004 -2.107832 4.876221 12.292405 4.685181 17.127444 1.425243 -0.579466 1.575002 2.538712 -0.000001 -0.000000 -0.000001 0.025274 0.590649 -4.900478 0.025110 0.588760 -4.884784 -0.000000 -0.001165 0.009703 -0.000000 -0.000000 0.000001 0.182041 1.575940 -13.177061 0.084199 1.075690 -8.950965 0.106465 1.208564 -10.067815 0.000001 0.000000 -0.000001 1.460794 5.889109 -16.427606 0.115052 -2.764893 -11.260155 0.221651 1.736349 -14.548182 -0.000001 -0.000000 0.000002 1.898347 31.381564 4.556330 -10.143215 18.046888 53.231506 0.000059 69.067276 -0.000067 38.170092 -24.971037 -38.199264 0.044749 -0.789238 6.490472 0.122726 -1.303228 10.758728 0.014297 -0.446552 3.666841 0.000001 -0.000000 0.000001 -2.032679 -12.088984 -7.927929 5.749305 -21.267910 -1.054425 -1.273759 0.137310 -2.094878 -0.000001 -0.000000 0.000000 0.011751 -0.404898 3.324378 0.044007 -0.782660 6.436144 0.002320 0.180019 -1.477341 -0.000002 -0.000000 -0.000005 0.115776 -1.266139 10.448970 0.275960 -1.943145 16.164403 0.108162 -1.224122 10.098476 -0.000001 0.000000 0.000003 0.196224 -1.643430 13.616899 0.441613 -2.442852 20.491336 0.245714 -1.835624 15.246924 -0.000001 -0.000001 -0.000001 -3.216871 33.702107 26.815142 45.494394 8.956632 -5.557200 -28.486731 13.647824 -13.393454 -0.630100 -0.000001 0.000006 0.000000 -0.000000 0.000000 -28.391741 0.041181 1.677820 43.316916 5.057907 -0.165261 -2.550758 0.201852 -0.202287 -0.646557 0.000012 -0.000006 -0.000000 -0.000000 -0.000000 
-6.181023 181.547470 -3.447821 -31.526299 -64.265448 -33.737795 9.658547 -10.803196 -2.711438 3.461352 -1.468223 1.581473 3.497140 -1.422072 1.536601 10.570855 -1.251679 1.014551 -3.705994 -6.364033 0.883839 -0.000001 0.000000 -0.000000 -0.000001 0.000000 -0.000000 -0.000001 0.000000 -0.000000 1.096041 -9.236825 0.289992 -31.441437 -59.796578 -43.931705 0.000001 -46.063619 -0.000004 32.411720 5.344981 -30.690748 0.283886 1.960420 -16.477230 0.144146 1.404312 -11.720571 0.084704 1.078908 -8.978030 0.000002 0.000001 0.000004 -2.107830 4.876221 12.292413 4.685178 17.127449 1.425242 -0.579470 1.575000 2.538715 0.000003 0.000000 0.000000 0.155424 1.457587 -12.172145 0.093742 1.134567 -9.445366 0.021732 0.547931 -4.545304 -0.000000 0.000001 0.000004 0.498661 2.577130 -21.898421 0.221076 1.734160 -14.529470 0.220781 1.732989 -14.519491 0.000002 -0.000000 -0.000000 2.497762 6.695592 -25.867873 0.294375 -2.060457 -17.278420 0.374865 2.245045 -18.956717 -0.000002 -0.000000 -0.000000 1.951622 30.723417 4.170476 -13.443431 19.077868 53.255292 0.000007 67.156544 -0.000017 40.826793 -25.682174 -41.100482 0.039340 -0.740146 6.085125 0.126368 -1.322262 10.917858 0.016032 -0.472896 3.883448 0.000000 -0.000000 -0.000002 -2.032675 -12.088984 -7.927937 5.749304 -21.267911 -1.054427 -1.273758 0.137309 -2.094873 0.000001 -0.000000 0.000002 0.007761 -0.329121 2.701686 0.044773 -0.789428 6.492054 0.002090 0.170747 -1.401237 -0.000000 0.000000 -0.000001 0.112844 -1.250135 10.315372 0.285822 -1.976833 16.452761 0.116703 -1.271145 10.490803 -0.000001 -0.000000 -0.000001 0.198640 -1.653356 13.700832 0.458469 -2.487449 20.883244 0.263080 -1.898156 15.780059 -0.000001 0.000001 0.000001 -3.136916 34.865356 26.947526 46.410172 9.229629 -5.618538 -29.029673 13.769724 -13.195964 -0.638155 0.000010 -0.000012 -0.000000 -0.000000 -0.000000 -28.866937 -0.409049 1.403192 44.174498 7.075936 0.235494 -2.589549 0.254403 -0.768930 -0.478499 -0.000037 -0.000004 -0.000000 -0.000002 -0.000000 
-6.243122 180.567947 -3.410144 -34.333227 -65.555643 -36.249009 10.260250 -10.074490 -2.982977 3.251285 -1.368438 1.685981 3.289420 -1.317946 1.649559 10.672437 -1.198923 1.019638 -3.510893 -5.751624 0.251893 -0.000001 -0.000000 -0.000000 -0.000001 -0.000000 -0.000000 -0.000001 -0.000000 -0.000000 1.175174 -10.091844 0.360291 -15.827775 -67.447859 -26.816644 -0.000002 -35.917291 -0.000006 24.647755 -3.219787 -23.230150 0.487169 2.548390 -21.641687 0.280434 1.948762 -16.376471 0.174410 1.542978 -12.897399 -0.000000 0.000001 -0.000003 -2.107829 4.876221 12.292411 4.685180 17.127446 1.425240 -0.579470 1.574999 2.538713 0.000002 0.000000 0.000000 0.278734 1.942957 -16.326189 0.187349 1.598420 -13.369574 0.070024 0.981416 -8.160695 -0.000001 -0.000003 -0.000001 0.827430 3.277629 -28.329325 0.420987 2.374957 -20.100825 0.369523 2.229446 -18.819977 -0.000003 -0.000000 0.000001 3.408242 7.208322 -33.379602 0.559352 -1.349056 -23.564129 0.576253 2.762132 -23.564387 0.000001 -0.000002 0.000003 2.012269 31.082862 3.988873 -20.589341 17.519915 52.962940 -0.000018 66.659047 0.000016 41.433693 -26.664044 -41.772839 0.031901 -0.666696 5.479270 0.128307 -1.332275 11.001574 0.016989 -0.486752 3.997469 0.000000 -0.000000 -0.000001 -2.032677 -12.088986 -7.927928 5.749306 -21.267908 -1.054436 -1.273758 0.137308 -2.094868 -0.000001 0.000003 -0.000001 0.003823 -0.231062 1.896376 0.043345 -0.776765 6.387461 0.002534 0.188089 -1.543585 0.000002 0.000000 0.000001 0.105198 -1.207377 9.958831 0.296947 -2.014090 16.772183 0.126544 -1.323157 10.925421 -0.000000 -0.000001 0.000001 0.194136 -1.634776 13.543837 0.480786 -2.545118 21.391555 0.286469 -1.979012 16.471513 0.000000 0.000000 -0.000003 -2.855013 35.451643 26.715373 47.718331 9.272398 -5.794061 -29.839409 14.700725 -12.715020 -0.569259 -0.000017 0.000004 -0.000000 -0.000000 -0.000000 -29.657740 -0.521796 1.529672 45.771317 8.591836 0.083336 -3.009563 0.287938 -1.122399 -0.407583 0.000011 -0.000004 -0.000000 -0.000001 0.000000 
-6.374718 179.608932 -3.357207 -36.341408 -66.340712 -37.984632 10.905847 -9.870763 -2.624455 3.141537 -1.335752 0.990950 3.166185 -1.299622 0.960030 10.327902 -1.175878 1.935431 -3.330188 -4.706941 0.132729 -0.000001 0.000000 0.000000 -0.000001 0.000000 0.000000 -0.000001 0.000000 0.000000 1.265229 -11.025318 0.468463 5.171167 -72.271044 -8.490639 0.000004 -27.441316 -0.000001 17.386096 -3.974781 -17.085126 0.535160 2.666058 -22.696876 0.381764 2.265013 -19.132132 0.237723 1.797121 -15.069605 0.000002 0.000002 0.000001 -2.107832 4.876222 12.292411 4.685178 17.127447 1.425238 -0.579467 1.574999 2.538712 0.000001 -0.000000 -0.000000 0.281346 1.951887 -16.403497 0.242521 1.814819 -15.221676 0.099733 1.170059 -9.743797 -0.000001 -0.000000 -0.000002 0.962574 3.516389 -30.610077 0.596818 2.808758 -23.987573 0.491116 2.558267 -21.730042 0.000001 0.000001 0.000002 3.826921 7.394636 -36.673133 0.811782 -0.830500 -28.339514 0.756704 3.143128 -27.066696 -0.000002 0.000000 -0.000000 2.065535 31.914325 3.957287 -31.706100 15.669718 51.240810 -0.000014 66.376475 0.000014 38.160403 -26.488795 -35.829359 0.024493 -0.584332 4.800604 0.122269 -1.300856 10.738916 0.014092 -0.443309 3.640148 0.000001 -0.000001 0.000001 -2.032676 -12.088986 -7.927929 5.749305 -21.267911 -1.054432 -1.273761 0.137312 -2.094875 0.000001 0.000002 0.000004 0.001542 -0.146806 1.204749 0.037675 -0.724318 5.954547 0.004838 0.259865 -2.132867 -0.000002 -0.000001 0.000005 0.091698 -1.127804 9.296263 0.295199 -2.008303 16.722511 0.124992 -1.315095 10.857960 -0.000001 0.000000 0.000002 0.176041 -1.557750 12.894062 0.486174 -2.558814 21.512557 0.292184 -1.998219 16.636119 -0.000002 0.000002 -0.000000 -2.731343 35.603748 26.490419 49.056502 9.397735 -5.920367 -30.572996 15.510938 -12.395137 -0.472159 -0.000002 -0.000002 0.000000 -0.000000 -0.000000 -30.454130 -0.518127 1.811944 47.490039 9.296569 -0.423658 -3.614304 0.290910 -1.236135 -0.399745 0.000010 -0.000008 -0.000000 -0.000002 -0.000000 
